<svg width="183" height="50" viewBox="0 0 183 50" fill="none" xmlns="http://www.w3.org/2000/svg">
<g filter="url(#filter0_d)">
<g clip-path="url(#clip0)">
<path d="M46 0H4V42H46V0Z" fill="#F76343"/>
<mask id="mask0" mask-type="alpha" maskUnits="userSpaceOnUse" x="-2" y="9" width="56" height="34">
<path d="M6.91176 22.5452L15.8235 41.7667H-2L6.91176 22.5452Z" fill="white"/>
<path d="M19.3583 13.1902L34.7204 41.7667H3.99609L19.3583 13.1902Z" fill="white"/>
<path d="M24.0625 9L39.4245 37.5764H8.70032L24.0625 9Z" fill="white"/>
<path d="M38.175 13.5801L53.5372 42.1565H22.8129L38.175 13.5801Z" fill="white"/>
</mask>
<g mask="url(#mask0)">
<path d="M46.2399 0H4V42H46.2399V0Z" fill="#72757E"/>
</g>
</g>
<path d="M25 41C13.9543 41 5 32.0457 5 21H3C3 33.1503 12.8497 43 25 43V41ZM45 21C45 32.0457 36.0457 41 25 41V43C37.1503 43 47 33.1503 47 21H45ZM25 1C36.0457 1 45 9.95431 45 21H47C47 8.84974 37.1503 -1 25 -1V1ZM25 -1C12.8497 -1 3 8.84974 3 21H5C5 9.95431 13.9543 1 25 1V-1Z" fill="#16161A"/>
</g>
<g filter="url(#filter1_d)">
<path d="M60.75 30.475C59.1833 30.475 57.8 30.2167 56.6 29.7C55.4167 29.1667 54.4167 28.4583 53.6 27.575C52.8 26.6917 52.1917 25.6833 51.775 24.55C51.375 23.4167 51.175 22.2417 51.175 21.025V20.475C51.175 19.325 51.375 18.2 51.775 17.1C52.175 16 52.7583 15.0083 53.525 14.125C54.3083 13.2417 55.2667 12.5417 56.4 12.025C57.5333 11.4917 58.85 11.225 60.35 11.225C61.9333 11.225 63.3417 11.525 64.575 12.125C65.825 12.725 66.825 13.5583 67.575 14.625C68.325 15.675 68.7667 16.8917 68.9 18.275H65.325C65.2083 17.4917 64.9167 16.825 64.45 16.275C63.9833 15.7083 63.3917 15.275 62.675 14.975C61.975 14.675 61.2 14.525 60.35 14.525C59.2 14.525 58.2083 14.7917 57.375 15.325C56.5417 15.8417 55.9 16.575 55.45 17.525C55 18.4583 54.775 19.5417 54.775 20.775C54.775 22.8083 55.3083 24.4 56.375 25.55C57.4583 26.6833 58.9167 27.25 60.75 27.25C61.7167 27.25 62.5917 27.0833 63.375 26.75C64.175 26.4167 64.825 25.975 65.325 25.425V23.375H60.175V20.725H70.125V23.375H68.6V26.725C67.8167 27.925 66.75 28.85 65.4 29.5C64.05 30.15 62.5 30.475 60.75 30.475ZM73.0508 30V11.75H76.6008V26.875H83.9758V30H73.0508ZM86.9191 30V11.75H90.4691V30H86.9191ZM95.0234 30.1V11.625H101.623C103.273 11.625 104.707 11.875 105.923 12.375C107.157 12.8583 108.182 13.525 108.998 14.375C109.832 15.2083 110.448 16.1583 110.848 17.225C111.265 18.2917 111.473 19.4 111.473 20.55V21.1C111.473 22.2 111.265 23.2833 110.848 24.35C110.448 25.4167 109.832 26.3833 108.998 27.25C108.182 28.1167 107.157 28.8083 105.923 29.325C104.707 29.8417 103.273 30.1 101.623 30.1H95.0234ZM101.848 14.925H98.5734V26.8H101.848C103.098 26.8 104.173 26.55 105.073 26.05C105.973 25.5333 106.665 24.825 107.148 23.925C107.632 23.025 107.873 21.9917 107.873 20.825C107.873 19.0083 107.34 17.575 106.273 16.525C105.207 15.4583 103.732 14.925 101.848 14.925ZM114.652 30V11.75H125.702V14.75H118.127V19.225H125.252V22.225H118.127V27H125.902V30H114.652Z" fill="#72757E"/>
<path d="M129.545 30V11.75H133.095V26.875H140.47V30H129.545ZM143.413 30V11.75H146.963V30H143.413ZM155.118 30V14.875H149.843V11.75H163.943V14.875H158.668V30H155.118ZM166.776 30V11.75H177.826V14.75H170.251V19.225H177.376V22.225H170.251V27H178.026V30H166.776Z" fill="#F76343"/>
</g>
<defs>
<filter id="filter0_d" x="0" y="0" width="50" height="50" filterUnits="userSpaceOnUse" color-interpolation-filters="sRGB">
<feFlood flood-opacity="0" result="BackgroundImageFix"/>
<feColorMatrix in="SourceAlpha" type="matrix" values="0 0 0 0 0 0 0 0 0 0 0 0 0 0 0 0 0 0 127 0"/>
<feOffset dy="4"/>
<feGaussianBlur stdDeviation="2"/>
<feColorMatrix type="matrix" values="0 0 0 0 0 0 0 0 0 0 0 0 0 0 0 0 0 0 0.25 0"/>
<feBlend mode="normal" in2="BackgroundImageFix" result="effect1_dropShadow"/>
<feBlend mode="normal" in="SourceGraphic" in2="effect1_dropShadow" result="shape"/>
</filter>
<filter id="filter1_d" x="47.175" y="11.225" width="134.851" height="27.25" filterUnits="userSpaceOnUse" color-interpolation-filters="sRGB">
<feFlood flood-opacity="0" result="BackgroundImageFix"/>
<feColorMatrix in="SourceAlpha" type="matrix" values="0 0 0 0 0 0 0 0 0 0 0 0 0 0 0 0 0 0 127 0"/>
<feOffset dy="4"/>
<feGaussianBlur stdDeviation="2"/>
<feColorMatrix type="matrix" values="0 0 0 0 0 0 0 0 0 0 0 0 0 0 0 0 0 0 0.25 0"/>
<feBlend mode="normal" in2="BackgroundImageFix" result="effect1_dropShadow"/>
<feBlend mode="normal" in="SourceGraphic" in2="effect1_dropShadow" result="shape"/>
</filter>
<clipPath id="clip0">
<path d="M4 21C4 9.40202 13.402 0 25 0V0C36.598 0 46 9.40202 46 21V21C46 32.598 36.598 42 25 42V42C13.402 42 4 32.598 4 21V21Z" fill="white"/>
</clipPath>
</defs>
</svg>
