<svg height="512" viewBox="0 0 512 512" width="512" xmlns="http://www.w3.org/2000/svg" xmlns:xlink="http://www.w3.org/1999/xlink"><linearGradient id="a" gradientUnits="userSpaceOnUse" x1="247.696" x2="247.696" y1="15.991" y2="498.73"><stop offset="0" stop-color="#fde92b"/><stop offset=".057" stop-color="#fcdd2b"/><stop offset=".16" stop-color="#f9bf2c"/><stop offset=".296" stop-color="#f48d2c"/><stop offset=".459" stop-color="#ee482e"/><stop offset=".519" stop-color="#eb2d2e"/><stop offset=".571" stop-color="#d22e3b"/><stop offset=".724" stop-color="#8c2f60"/><stop offset=".851" stop-color="#59307b"/><stop offset=".947" stop-color="#3a318c"/><stop offset="1" stop-color="#2e3192"/></linearGradient><path d="m319.215 291.309c-11.2-4.385-5.654-21.124 6.262-14.98 1.621 1.509 2.407.555 3.1.323a8 8 0 0 1 10.97-2.766c12.773 10.39-9.088 24.697-20.332 17.423zm168.785-187.118c.465 18.8 1.077 35.124-20.942 39.607l-86.43 69.15c2.916 16.1 15.241 58.5-13.485 56.832a112.276 112.276 0 0 1 -41.952 74.284 53.7 53.7 0 0 1 23.226 31.167c39.841-17.442 61.731 26.279 13.261 38.572 7.677 13.3 6.052 32.05 2.2 45.848.09.111.171.229.255.345 9.339 3.644 26.8 23.445 19.065 35.906-3 4.829-33.412 1.83-63.021 2.622h-44.677c-6.8-.849-19 4.074-19.1-10.525h-49.083c-14.775-.756-24.6 4.434-23.317-14.591-24.762 18.021-34.125 14.113-71.7 14.59-119.877 14.79-141.229-221.388-38.813-267.617 11.939-5.628 30.693-4.3 45.707-4.381l-90.252-72.2c-11.15-1.624-19.819-10.17-20.842-21.606-12.453-82.15 114.9-105.155 191.29-106.171 1.961-.048 87.042-.037 88.984 0 51.684-.489 102.655 8.175 139.694 24.051 39.008 16.363 60.477 40.364 59.932 64.117zm-462.76-8.191h71.509c5.168-27.97 38.181-50.12 78.168-63.031-38.693 2.591-74.239 10.331-101.976 22.364-26.347 11.434-43.171 25.912-47.701 40.667zm414.76 8.891c-8.806-14.834-51.825-30.791-84.143-35.605 11.906 12.888 15.943 25.777 15.143 40.05.627 9.775-1.986 12.223 3.116 17 .186 3.472 64.614.939 67.261 1.668-2.218-5.584-1.146-17.33-1.377-23.113zm-312.86 270.988c-15.678 12.949-31.093 29.336-40.986 47.132a124.456 124.456 0 0 0 7.767 14.76c13.762-15.399 25.321-40.071 33.219-61.892zm-45.848 71.871q-1.866-2.928-3.618-6.021c-.52 3.771.655 6.437 3.618 6.021zm39.608-86.909a44.566 44.566 0 0 1 .22-18.631c-16.061-12.23-30.038-29.242-40.668-46.28-10.822 32.789-11.167 74.985-1.252 108.054a178.992 178.992 0 0 1 28.7-32.453c4.176-4.022 8.523-7.996 13-10.69zm24.435-91.565c.989 3.8 2.014 7.307 2.771 10.249 19.538-4.176 38.948-8.511 57.951-12.652 4.54-.988 9.628-2.092 14.915-3.226q-2.367-9.112-4.73-18.227c-8.087 2.735-16.363 5.521-24.694 8.323-15.322 5.133-31.473 10.541-46.213 15.533zm29.5 90.63c-8.716-1.4-9.163-14.289 0-15.812-5.219-14.831-14.3-7.134-14.84 7.906.613 15.432 9.814 22.465 14.845 7.906zm-10.783-39.906a111.077 111.077 0 0 1 -12.96-24.752c-17.328 4.88-15.855-1.765-19.8-16.61-3.809-15.415-8.257-20.444 12.767-25.82a112.445 112.445 0 0 1 1.546-15.69l-6.1-4.88c-11.661 1.239-22.869 7.215-32.876 17.487 15.238 16.991 27.492 46.03 35.254 70.395a19.146 19.146 0 0 1 2.117-.13zm-67.679-57.56a117.425 117.425 0 0 0 -8.253 14.335c8.98 18.518 24.119 36.59 38.994 50.089-1.759-7.121-5.108-14.83-7.118-20.194-6.412-17.946-14.163-32.455-23.623-44.23zm-12.712-9.751c-2.181.24-2.191 2.378-2.631 3.987q1.289-2.037 2.631-3.987zm63.462 115.311c-4.2-9.3-3.974-23.212 0-32-8.767-1.157-10.955 9.344-11.123 16 .711 11.724 4.527 16.94 11.123 16zm16.7 16c6.214 14.229 12.4 28.984 20.18 40.453v-26.337a178.653 178.653 0 0 0 -14.125-14.216c-.62.061-1.245.1-1.878.1zm67.914-101.506a52.117 52.117 0 0 1 -4.944-3.729c-6.142 1.312-12.1 2.6-17.328 3.741-14.292 3.115-28.725 6.316-42.541 9.319a96.25 96.25 0 0 0 33.462 42.425c16.457-12.441 28.267-31.835 31.348-51.756zm87.945-93.537q1.986-.544 3.966-1.072c-47.33-46.964-128.909-33.028-156.117 30.8a8.185 8.185 0 0 1 -.345.823 95.734 95.734 0 0 0 -6.779 27.8c8.638-2.9 17.373-5.829 26.055-8.737 9.3-3.126 18.507-6.228 27.478-9.266 2.79-5.188 10.206-6.128 14.181-8.437a701.354 701.354 0 0 1 91.558-31.911zm29.235-7.321c4.074-.791 9.171-2.383 12.579-2.442l35.191-35.194c-4.187-.175-19.944.565-23.764-.781zm26.083 15.326 66.2-52.962h-21.887l-47.055 47.055q1.442 2.901 2.742 5.907zm-231-92.071c-.151 9.678 1.764 23.711-6.389 31.392l31.005 49.608c40.2-50.335 116.794-57.106 165.256-10.375l25.808-41.3c-12.7-17.591 7.776-36-21.982-60.163-3-2.827-7.488-4.732-8.85-8.339-51.321-5.823-154.148 2.258-184.848 39.177zm-44.687 39.109 58.353 58.352q.549-1.008 1.12-2l-35.375-56.6c-2.74.505-20.741.148-24.098.248zm-44.507 0 90.017 72.013q2.04.029 4.074.2l-72.21-72.213zm-24.741 160h31.519a172.67 172.67 0 0 1 8.91-27.1c-11.54-19.33-3.823-48.955 24.026-37.639a90.8 90.8 0 0 1 7.772-7.26c-22.135-1.549-40.827 9.46-56.077 33.73a140.137 140.137 0 0 0 -16.15 38.269zm-3.435 80h31.812a213.019 213.019 0 0 1 -.018-64h-31.794a197.526 197.526 0 0 0 0 64zm75.692 88a92.9 92.9 0 0 1 -11.078-10.841c-24.038 10.529-38.829-13.316-22.785-39.07a175.783 175.783 0 0 1 -6.871-22.089h-31.523c8.061 32.078 31.794 72.17 65.935 72zm81.678-20.557v-.935c-15.619-16.438-28.067-42.472-37.321-66.508a43.766 43.766 0 0 1 -5.3-.185c-9.532 24.724-21.808 50.446-37.788 67.137 11.943 13.616 26.097 21.048 40.409 21.048 17.677 0 31.257-10.716 40-20.557zm16 20.557h57.478a76.861 76.861 0 0 1 2.262-9.64c-36.462 6.267-48.144-18.7-43.822-53.882a27.2 27.2 0 0 1 -4.787-8.834c-4.3-12.071 2.077-28.058 11.077-36.851a112.43 112.43 0 0 1 -22.208-9.793zm70.665-104.966-.255 11.021c11.983-.111 21.481 6.433 22.6 17.053a53.188 53.188 0 0 1 10.829-.74c-.575-13-1.386-22.88-5.494-34.668a111.509 111.509 0 0 1 -27.68 7.334zm62.969 43.9c8.824 14.8 3.281 35.579-9.16 49.825a41.5 41.5 0 0 1 5.774 5.266c6.159-2.013 11.753-6.618 17.519-7.97 3.8-14.69 7.106-32.243-5.646-43.215a7.981 7.981 0 0 1 -2.534-1.6 27.6 27.6 0 0 0 -5.953-2.302zm-75.085 35.233c8.173-2.146 22.648-12.07 24.167 2.548-1.751 7.47-7.388 13.757-8.5 21.32 11.163-.283 20.179-6.513 29.543-10.209a9.25 9.25 0 0 1 .76-.644c22.868-20.913 27.959-55.188-14.943-47.594-1.936 1.109-4.071 2.468-5.634 3.36-11.921 8.537-35.307 8.6-52.594 4-1.293 18.894 4.058 33.186 27.201 27.223zm.629-50.663a21.96 21.96 0 0 0 -.446 10.084c8.089-.385 15.982-.576 18.287-7.595 1.236-6.685-13.996-2.855-17.841-2.485zm32.731 87.016h30.322c-1.545-4.26-6.113-8.1-8.114-9.485-7.129 2.4-14.668 6.593-21.274 9.142-.313.123-.622.231-.934.347zm-37.27-114.55a112.913 112.913 0 0 1 -12.469-.831 9 9 0 0 1 -3.629 2c-7.321 6.27-15.243 16.8-12.065 25.96 1.741 5.836 10.01 9.438 16.055 10.107a38.315 38.315 0 0 1 .556-11.146c-9.588-4.718-7.118-19.454 11.275-14.143zm111.431 114.554c-3.073-4.89-7.794-8.5-12.82-9.345-5.751 1.366-10.4 5.337-15.047 7.014.178.77.318 1.549.43 2.331zm-5.63-94.159c.688 2.365 2.146 4.625 4.368 7.56 4.685-2.271 12.794-6.008 5.452-8.608-2.774-.691-6.309.039-9.82 1.048zm-46.408-32.22c4.329 13.159 5.218 24.5 5.8 37.589 10.931-.434 20.28 1.486 27.91 5.729h.181a30.223 30.223 0 0 1 -3.077-7.455 29.6 29.6 0 0 1 -3.26.072c-13.103-.432-1.386-21.654-27.554-35.935zm37.419-90.088c-18.228-6.087-22.956-12.016-38.646 6.3-16.367 18.154-43.172 24.627-66.111 17.19a98.588 98.588 0 0 1 -31.586 53.326 96.082 96.082 0 0 0 44.96 9.029 8.352 8.352 0 0 1 4.534-.321 95.662 95.662 0 0 0 86.849-85.524zm5.482-69.828q-5.2 1.149-10.316 2.377l.142.709c-8.033 1.618-15.285 3.216-23.138 5.149a683.761 683.761 0 0 0 -92.972 32.751c2.612 10.089 5.39 20.783 7.914 30.5l.007.025c16.268 11.836 40.284 12.108 56.6-.836 9.912-7.89 14.463-17.794 27.778-21.815 17.159-4.794 30.729 7.9 46.019 8.668a109.672 109.672 0 0 0 -12.034-57.528zm45.9-148.481c-64.066-21.384-163.641-20.87-226.3 1.548-31.278 10.97-64.209 28.7-65.161 57.818-2.618 5.73-9.727 4.968-9.006 4.886-11.422 0-78.354 0-78.366 0-.961 22.671-.394 14.656 95.671 16 18.449-1.415-3.8-25.7 20.957-42.588 58.894-44.125 186.705-45.767 257.239-22.425 15.311 4.113 52.24 21.013 57.111 36.17 1.482 2.609.95 10.029 1.023 20.112-1.272 8.413 14.149 13.99 16 .731 5.199-40.579-26.818-57.387-69.171-72.252z" fill="url(#a)"/></svg>